<svg width="21" height="20" viewBox="0 0 21 20" fill="none" xmlns="http://www.w3.org/2000/svg">
<path d="M7.56771 18.3332C8.02795 18.3332 8.40104 17.9601 8.40104 17.4998C8.40104 17.0396 8.02795 16.6665 7.56771 16.6665C7.10747 16.6665 6.73438 17.0396 6.73438 17.4998C6.73438 17.9601 7.10747 18.3332 7.56771 18.3332Z" stroke="#FDE68A" stroke-width="1.66667" stroke-linecap="round" stroke-linejoin="round"/>
<path d="M16.7337 18.3332C17.194 18.3332 17.5671 17.9601 17.5671 17.4998C17.5671 17.0396 17.194 16.6665 16.7337 16.6665C16.2735 16.6665 15.9004 17.0396 15.9004 17.4998C15.9004 17.9601 16.2735 18.3332 16.7337 18.3332Z" stroke="#FDE68A" stroke-width="1.66667" stroke-linecap="round" stroke-linejoin="round"/>
<path d="M2.60938 1.7085H4.27604L6.49271 12.0585C6.57402 12.4375 6.78493 12.7764 7.08913 13.0167C7.39334 13.257 7.7718 13.3838 8.15937 13.3752H16.3094C16.6887 13.3745 17.0564 13.2446 17.3519 13.0067C17.6473 12.7688 17.8528 12.4373 17.9344 12.0668L19.3094 5.87516H5.16771" stroke="#FDE68A" stroke-width="1.66667" stroke-linecap="round" stroke-linejoin="round"/>
</svg>
