<svg width="183" height="48" viewBox="0 0 183 48" fill="none" xmlns="http://www.w3.org/2000/svg">
<path d="M54.2148 24H46.3867V6.72656H54.7773C56.8945 6.75781 58.3945 7.37109 59.2773 8.56641C59.8086 9.30078 60.0742 10.1797 60.0742 11.2031C60.0742 12.2578 59.8086 13.1055 59.2773 13.7461C58.9805 14.1055 58.543 14.4336 57.9648 14.7305C58.8477 15.0508 59.5117 15.5586 59.957 16.2539C60.4102 16.9492 60.6367 17.793 60.6367 18.7852C60.6367 19.8086 60.3789 20.7266 59.8633 21.5391C59.5352 22.0781 59.125 22.5312 58.6328 22.8984C58.0781 23.3203 57.4219 23.6094 56.6641 23.7656C55.9141 23.9219 55.0977 24 54.2148 24ZM54.1328 16.3945H49.832V21H54.0742C54.832 21 55.4219 20.8984 55.8438 20.6953C56.6094 20.3203 56.9922 19.6016 56.9922 18.5391C56.9922 17.6406 56.6211 17.0234 55.8789 16.6875C55.4648 16.5 54.8828 16.4023 54.1328 16.3945ZM55.9258 13.1016C56.3945 12.8203 56.6289 12.3164 56.6289 11.5898C56.6289 10.7852 56.3164 10.2539 55.6914 9.99609C55.1523 9.81641 54.4648 9.72656 53.6289 9.72656H49.832V13.5352H54.0742C54.832 13.5352 55.4492 13.3906 55.9258 13.1016ZM63.8828 12.6094C64.7656 11.4844 66.2812 10.9219 68.4297 10.9219C69.8281 10.9219 71.0703 11.1992 72.1562 11.7539C73.2422 12.3086 73.7852 13.3555 73.7852 14.8945V20.7539C73.7852 21.1602 73.793 21.6523 73.8086 22.2305C73.832 22.668 73.8984 22.9648 74.0078 23.1211C74.1172 23.2773 74.2812 23.4062 74.5 23.5078V24H70.8672C70.7656 23.7422 70.6953 23.5 70.6562 23.2734C70.6172 23.0469 70.5859 22.7891 70.5625 22.5C70.1016 23 69.5703 23.4258 68.9688 23.7773C68.25 24.1914 67.4375 24.3984 66.5312 24.3984C65.375 24.3984 64.418 24.0703 63.6602 23.4141C62.9102 22.75 62.5352 21.8125 62.5352 20.6016C62.5352 19.0312 63.1406 17.8945 64.3516 17.1914C65.0156 16.8086 65.9922 16.5352 67.2812 16.3711L68.418 16.2305C69.0352 16.1523 69.4766 16.0547 69.7422 15.9375C70.2188 15.7344 70.457 15.418 70.457 14.9883C70.457 14.4648 70.2734 14.1055 69.9062 13.9102C69.5469 13.707 69.0156 13.6055 68.3125 13.6055C67.5234 13.6055 66.9648 13.8008 66.6367 14.1914C66.4023 14.4805 66.2461 14.8711 66.168 15.3633H62.9453C63.0156 14.2461 63.3281 13.3281 63.8828 12.6094ZM66.3672 21.5859C66.6797 21.8438 67.0625 21.9727 67.5156 21.9727C68.2344 21.9727 68.8945 21.7617 69.4961 21.3398C70.1055 20.918 70.4219 20.1484 70.4453 19.0312V17.7891C70.2344 17.9219 70.0195 18.0312 69.8008 18.1172C69.5898 18.1953 69.2969 18.2695 68.9219 18.3398L68.1719 18.4805C67.4688 18.6055 66.9648 18.7578 66.6602 18.9375C66.1445 19.2422 65.8867 19.7148 65.8867 20.3555C65.8867 20.9258 66.0469 21.3359 66.3672 21.5859ZM88.4805 24H84.4492L81.3906 18.5391L80.0078 19.9805V24H76.7266V6.78516H80.0078V16.0898L84.168 11.2852H88.3047L83.8398 16.1719L88.4805 24ZM101.055 20.25C100.969 21.0078 100.574 21.7773 99.8711 22.5586C98.7773 23.8008 97.2461 24.4219 95.2773 24.4219C93.6523 24.4219 92.2188 23.8984 90.9766 22.8516C89.7344 21.8047 89.1133 20.1016 89.1133 17.7422C89.1133 15.5312 89.6719 13.8359 90.7891 12.6562C91.9141 11.4766 93.3711 10.8867 95.1602 10.8867C96.2227 10.8867 97.1797 11.0859 98.0312 11.4844C98.8828 11.8828 99.5859 12.5117 100.141 13.3711C100.641 14.1289 100.965 15.0078 101.113 16.0078C101.199 16.5938 101.234 17.4375 101.219 18.5391H92.4766C92.5234 19.8203 92.9258 20.7188 93.6836 21.2344C94.1445 21.5547 94.6992 21.7148 95.3477 21.7148C96.0352 21.7148 96.5938 21.5195 97.0234 21.1289C97.2578 20.918 97.4648 20.625 97.6445 20.25H101.055ZM97.75 16.3359C97.6953 15.4531 97.4258 14.7852 96.9414 14.332C96.4648 13.8711 95.8711 13.6406 95.1602 13.6406C94.3867 13.6406 93.7852 13.8828 93.3555 14.3672C92.9336 14.8516 92.668 15.5078 92.5586 16.3359H97.75ZM109.902 14.3086C108.559 14.3086 107.656 14.7461 107.195 15.6211C106.938 16.1133 106.809 16.8711 106.809 17.8945V24H103.445V11.2266H106.633V13.4531C107.148 12.6016 107.598 12.0195 107.98 11.707C108.605 11.1836 109.418 10.9219 110.418 10.9219C110.48 10.9219 110.531 10.9258 110.57 10.9336C110.617 10.9336 110.715 10.9375 110.863 10.9453V14.3672C110.652 14.3438 110.465 14.3281 110.301 14.3203C110.137 14.3125 110.004 14.3086 109.902 14.3086ZM122.688 24H111.66V21.3984L118.211 13.9453H112.105V11.2266H122.465V14.0039L115.984 21.2578H122.688V24ZM139.668 24H131.84V6.72656H140.23C142.348 6.75781 143.848 7.37109 144.73 8.56641C145.262 9.30078 145.527 10.1797 145.527 11.2031C145.527 12.2578 145.262 13.1055 144.73 13.7461C144.434 14.1055 143.996 14.4336 143.418 14.7305C144.301 15.0508 144.965 15.5586 145.41 16.2539C145.863 16.9492 146.09 17.793 146.09 18.7852C146.09 19.8086 145.832 20.7266 145.316 21.5391C144.988 22.0781 144.578 22.5312 144.086 22.8984C143.531 23.3203 142.875 23.6094 142.117 23.7656C141.367 23.9219 140.551 24 139.668 24ZM139.586 16.3945H135.285V21H139.527C140.285 21 140.875 20.8984 141.297 20.6953C142.062 20.3203 142.445 19.6016 142.445 18.5391C142.445 17.6406 142.074 17.0234 141.332 16.6875C140.918 16.5 140.336 16.4023 139.586 16.3945ZM141.379 13.1016C141.848 12.8203 142.082 12.3164 142.082 11.5898C142.082 10.7852 141.77 10.2539 141.145 9.99609C140.605 9.81641 139.918 9.72656 139.082 9.72656H135.285V13.5352H139.527C140.285 13.5352 140.902 13.3906 141.379 13.1016ZM152.289 11.2266V24H148.902V11.2266H152.289ZM152.289 6.62109V9.70312H148.902V6.62109H152.289ZM161.383 21.6211V24.1172L159.801 24.1758C158.223 24.2305 157.145 23.957 156.566 23.3555C156.191 22.9727 156.004 22.3828 156.004 21.5859V13.7227H154.223V11.3438H156.004V7.78125H159.309V11.3438H161.383V13.7227H159.309V20.4727C159.309 20.9961 159.375 21.3242 159.508 21.457C159.641 21.582 160.047 21.6445 160.727 21.6445C160.828 21.6445 160.934 21.6445 161.043 21.6445C161.16 21.6367 161.273 21.6289 161.383 21.6211ZM174.461 20.25C174.375 21.0078 173.98 21.7773 173.277 22.5586C172.184 23.8008 170.652 24.4219 168.684 24.4219C167.059 24.4219 165.625 23.8984 164.383 22.8516C163.141 21.8047 162.52 20.1016 162.52 17.7422C162.52 15.5312 163.078 13.8359 164.195 12.6562C165.32 11.4766 166.777 10.8867 168.566 10.8867C169.629 10.8867 170.586 11.0859 171.438 11.4844C172.289 11.8828 172.992 12.5117 173.547 13.3711C174.047 14.1289 174.371 15.0078 174.52 16.0078C174.605 16.5938 174.641 17.4375 174.625 18.5391H165.883C165.93 19.8203 166.332 20.7188 167.09 21.2344C167.551 21.5547 168.105 21.7148 168.754 21.7148C169.441 21.7148 170 21.5195 170.43 21.1289C170.664 20.918 170.871 20.625 171.051 20.25H174.461ZM171.156 16.3359C171.102 15.4531 170.832 14.7852 170.348 14.332C169.871 13.8711 169.277 13.6406 168.566 13.6406C167.793 13.6406 167.191 13.8828 166.762 14.3672C166.34 14.8516 166.074 15.5078 165.965 16.3359H171.156Z" fill="#FEF3C7"/>
<path d="M45.5254 35.8926H49.3984C50.1641 35.8926 50.7812 36.1094 51.25 36.543C51.7188 36.9727 51.9531 37.5781 51.9531 38.3594C51.9531 39.0312 51.7441 39.6172 51.3262 40.1172C50.9082 40.6133 50.2656 40.8613 49.3984 40.8613H46.6914V44.5H45.5254V35.8926ZM50.7754 38.3652C50.7754 37.7324 50.541 37.3027 50.0723 37.0762C49.8145 36.9551 49.4609 36.8945 49.0117 36.8945H46.6914V39.877H49.0117C49.5352 39.877 49.959 39.7656 50.2832 39.543C50.6113 39.3203 50.7754 38.9277 50.7754 38.3652ZM53.3066 38.2246H54.3086V39.3086C54.3906 39.0977 54.5918 38.8418 54.9121 38.541C55.2324 38.2363 55.6016 38.084 56.0195 38.084C56.0391 38.084 56.0723 38.0859 56.1191 38.0898C56.166 38.0938 56.2461 38.1016 56.3594 38.1133V39.2266C56.2969 39.2148 56.2383 39.207 56.1836 39.2031C56.1328 39.1992 56.0762 39.1973 56.0137 39.1973C55.4824 39.1973 55.0742 39.3691 54.7891 39.7129C54.5039 40.0527 54.3613 40.4453 54.3613 40.8906V44.5H53.3066V38.2246ZM59.8867 38.084C60.332 38.084 60.7637 38.1895 61.1816 38.4004C61.5996 38.6074 61.918 38.877 62.1367 39.209C62.3477 39.5254 62.4883 39.8945 62.5586 40.3164C62.6211 40.6055 62.6523 41.0664 62.6523 41.6992H58.0527C58.0723 42.3359 58.2227 42.8477 58.5039 43.2344C58.7852 43.6172 59.2207 43.8086 59.8105 43.8086C60.3613 43.8086 60.8008 43.627 61.1289 43.2637C61.3164 43.0527 61.4492 42.8086 61.5273 42.5312H62.5645C62.5371 42.7617 62.4453 43.0195 62.2891 43.3047C62.1367 43.5859 61.9648 43.8164 61.7734 43.9961C61.4531 44.3086 61.0566 44.5195 60.584 44.6289C60.3301 44.6914 60.043 44.7227 59.7227 44.7227C58.9414 44.7227 58.2793 44.4395 57.7363 43.873C57.1934 43.3027 56.9219 42.5059 56.9219 41.4824C56.9219 40.4746 57.1953 39.6562 57.7422 39.0273C58.2891 38.3984 59.0039 38.084 59.8867 38.084ZM61.5684 40.8613C61.5254 40.4043 61.4258 40.0391 61.2695 39.7656C60.9805 39.2578 60.498 39.0039 59.8223 39.0039C59.3379 39.0039 58.9316 39.1797 58.6035 39.5312C58.2754 39.8789 58.1016 40.3223 58.082 40.8613H61.5684ZM63.9531 38.2246H64.9961V39.1152C65.2461 38.8066 65.4727 38.582 65.6758 38.4414C66.0234 38.2031 66.418 38.084 66.8594 38.084C67.3594 38.084 67.7617 38.207 68.0664 38.4531C68.2383 38.5938 68.3945 38.8008 68.5352 39.0742C68.7695 38.7383 69.0449 38.4902 69.3613 38.3301C69.6777 38.166 70.0332 38.084 70.4277 38.084C71.2715 38.084 71.8457 38.3887 72.1504 38.998C72.3145 39.3262 72.3965 39.7676 72.3965 40.3223V44.5H71.3008V40.1406C71.3008 39.7227 71.1953 39.4355 70.9844 39.2793C70.7773 39.123 70.5234 39.0449 70.2227 39.0449C69.8086 39.0449 69.4512 39.1836 69.1504 39.4609C68.8535 39.7383 68.7051 40.2012 68.7051 40.8496V44.5H67.6328V40.4043C67.6328 39.9785 67.582 39.668 67.4805 39.4727C67.3203 39.1797 67.0215 39.0332 66.584 39.0332C66.1855 39.0332 65.8223 39.1875 65.4941 39.4961C65.1699 39.8047 65.0078 40.3633 65.0078 41.1719V44.5H63.9531V38.2246ZM73.9492 38.2539H75.0215V44.5H73.9492V38.2539ZM73.9492 35.8926H75.0215V37.0879H73.9492V35.8926ZM77.6758 38.2246V42.3906C77.6758 42.7109 77.7266 42.9727 77.8281 43.1758C78.0156 43.5508 78.3652 43.7383 78.877 43.7383C79.6113 43.7383 80.1113 43.4102 80.377 42.7539C80.5215 42.4023 80.5938 41.9199 80.5938 41.3066V38.2246H81.6484V44.5H80.6523L80.6641 43.5742C80.5273 43.8125 80.3574 44.0137 80.1543 44.1777C79.752 44.5059 79.2637 44.6699 78.6895 44.6699C77.7949 44.6699 77.1855 44.3711 76.8613 43.7734C76.6855 43.4531 76.5977 43.0254 76.5977 42.4902V38.2246H77.6758ZM83.3008 38.2246H84.3438V39.1152C84.5938 38.8066 84.8203 38.582 85.0234 38.4414C85.3711 38.2031 85.7656 38.084 86.207 38.084C86.707 38.084 87.1094 38.207 87.4141 38.4531C87.5859 38.5938 87.7422 38.8008 87.8828 39.0742C88.1172 38.7383 88.3926 38.4902 88.709 38.3301C89.0254 38.166 89.3809 38.084 89.7754 38.084C90.6191 38.084 91.1934 38.3887 91.498 38.998C91.6621 39.3262 91.7441 39.7676 91.7441 40.3223V44.5H90.6484V40.1406C90.6484 39.7227 90.543 39.4355 90.332 39.2793C90.125 39.123 89.8711 39.0449 89.5703 39.0449C89.1562 39.0449 88.7988 39.1836 88.498 39.4609C88.2012 39.7383 88.0527 40.2012 88.0527 40.8496V44.5H86.9805V40.4043C86.9805 39.9785 86.9297 39.668 86.8281 39.4727C86.668 39.1797 86.3691 39.0332 85.9316 39.0332C85.5332 39.0332 85.1699 39.1875 84.8418 39.4961C84.5176 39.8047 84.3555 40.3633 84.3555 41.1719V44.5H83.3008V38.2246ZM100.012 39.5312C100.504 39.5312 100.887 39.4629 101.16 39.3262C101.59 39.1113 101.805 38.7246 101.805 38.166C101.805 37.6035 101.576 37.2246 101.119 37.0293C100.861 36.9199 100.479 36.8652 99.9707 36.8652H97.8906V39.5312H100.012ZM100.404 43.5039C101.119 43.5039 101.629 43.2969 101.934 42.8828C102.125 42.6211 102.221 42.3047 102.221 41.9336C102.221 41.3086 101.941 40.8828 101.383 40.6562C101.086 40.5352 100.693 40.4746 100.205 40.4746H97.8906V43.5039H100.404ZM96.748 35.8926H100.445C101.453 35.8926 102.17 36.1934 102.596 36.7949C102.846 37.1504 102.971 37.5605 102.971 38.0254C102.971 38.5684 102.816 39.0137 102.508 39.3613C102.348 39.5449 102.117 39.7129 101.816 39.8652C102.258 40.0332 102.588 40.2227 102.807 40.4336C103.193 40.8086 103.387 41.3262 103.387 41.9863C103.387 42.541 103.213 43.043 102.865 43.4922C102.346 44.1641 101.52 44.5 100.387 44.5H96.748V35.8926ZM105.449 42.8301C105.449 43.1348 105.561 43.375 105.783 43.5508C106.006 43.7266 106.27 43.8145 106.574 43.8145C106.945 43.8145 107.305 43.7285 107.652 43.5566C108.238 43.2715 108.531 42.8047 108.531 42.1562V41.3066C108.402 41.3887 108.236 41.457 108.033 41.5117C107.83 41.5664 107.631 41.6055 107.436 41.6289L106.797 41.7109C106.414 41.7617 106.127 41.8418 105.936 41.9512C105.611 42.1348 105.449 42.4277 105.449 42.8301ZM108.004 40.6973C108.246 40.666 108.408 40.5645 108.49 40.3926C108.537 40.2988 108.561 40.1641 108.561 39.9883C108.561 39.6289 108.432 39.3691 108.174 39.209C107.92 39.0449 107.555 38.9629 107.078 38.9629C106.527 38.9629 106.137 39.1113 105.906 39.4082C105.777 39.5723 105.693 39.8164 105.654 40.1406H104.67C104.689 39.3672 104.939 38.8301 105.42 38.5293C105.904 38.2246 106.465 38.0723 107.102 38.0723C107.84 38.0723 108.439 38.2129 108.9 38.4941C109.357 38.7754 109.586 39.2129 109.586 39.8066V43.4219C109.586 43.5312 109.607 43.6191 109.65 43.6855C109.697 43.752 109.793 43.7852 109.938 43.7852C109.984 43.7852 110.037 43.7832 110.096 43.7793C110.154 43.7715 110.217 43.7617 110.283 43.75V44.5293C110.119 44.5762 109.994 44.6055 109.908 44.6172C109.822 44.6289 109.705 44.6348 109.557 44.6348C109.193 44.6348 108.93 44.5059 108.766 44.248C108.68 44.1113 108.619 43.918 108.584 43.668C108.369 43.9492 108.061 44.1934 107.658 44.4004C107.256 44.6074 106.812 44.7109 106.328 44.7109C105.746 44.7109 105.27 44.5352 104.898 44.1836C104.531 43.8281 104.348 43.3848 104.348 42.8535C104.348 42.2715 104.529 41.8203 104.893 41.5C105.256 41.1797 105.732 40.9824 106.322 40.9082L108.004 40.6973ZM111.297 35.8926H112.311V40.8906L115.018 38.2246H116.365L113.963 40.5742L116.5 44.5H115.152L113.195 41.3359L112.311 42.1445V44.5H111.297V35.8926ZM119.934 38.084C120.379 38.084 120.811 38.1895 121.229 38.4004C121.646 38.6074 121.965 38.877 122.184 39.209C122.395 39.5254 122.535 39.8945 122.605 40.3164C122.668 40.6055 122.699 41.0664 122.699 41.6992H118.1C118.119 42.3359 118.27 42.8477 118.551 43.2344C118.832 43.6172 119.268 43.8086 119.857 43.8086C120.408 43.8086 120.848 43.627 121.176 43.2637C121.363 43.0527 121.496 42.8086 121.574 42.5312H122.611C122.584 42.7617 122.492 43.0195 122.336 43.3047C122.184 43.5859 122.012 43.8164 121.82 43.9961C121.5 44.3086 121.104 44.5195 120.631 44.6289C120.377 44.6914 120.09 44.7227 119.77 44.7227C118.988 44.7227 118.326 44.4395 117.783 43.873C117.24 43.3027 116.969 42.5059 116.969 41.4824C116.969 40.4746 117.242 39.6562 117.789 39.0273C118.336 38.3984 119.051 38.084 119.934 38.084ZM121.615 40.8613C121.572 40.4043 121.473 40.0391 121.316 39.7656C121.027 39.2578 120.545 39.0039 119.869 39.0039C119.385 39.0039 118.979 39.1797 118.65 39.5312C118.322 39.8789 118.148 40.3223 118.129 40.8613H121.615ZM124.029 38.2246H125.031V39.3086C125.113 39.0977 125.314 38.8418 125.635 38.541C125.955 38.2363 126.324 38.084 126.742 38.084C126.762 38.084 126.795 38.0859 126.842 38.0898C126.889 38.0938 126.969 38.1016 127.082 38.1133V39.2266C127.02 39.2148 126.961 39.207 126.906 39.2031C126.855 39.1992 126.799 39.1973 126.736 39.1973C126.205 39.1973 125.797 39.3691 125.512 39.7129C125.227 40.0527 125.084 40.4453 125.084 40.8906V44.5H124.029V38.2246ZM131.916 38.2246H133.082C132.934 38.627 132.604 39.5449 132.092 40.9785C131.709 42.0566 131.389 42.9355 131.131 43.6152C130.521 45.2168 130.092 46.1934 129.842 46.5449C129.592 46.8965 129.162 47.0723 128.553 47.0723C128.404 47.0723 128.289 47.0664 128.207 47.0547C128.129 47.043 128.031 47.0215 127.914 46.9902V46.0293C128.098 46.0801 128.23 46.1113 128.312 46.123C128.395 46.1348 128.467 46.1406 128.529 46.1406C128.725 46.1406 128.867 46.1074 128.957 46.041C129.051 45.9785 129.129 45.9004 129.191 45.8066C129.211 45.7754 129.281 45.6152 129.402 45.3262C129.523 45.0371 129.611 44.8223 129.666 44.6816L127.346 38.2246H128.541L130.223 43.334L131.916 38.2246ZM139.99 39.2383C140.361 38.9766 140.617 38.7637 140.758 38.5996C140.988 38.334 141.104 38.0391 141.104 37.7148C141.104 37.4609 141.02 37.2422 140.852 37.0586C140.684 36.875 140.457 36.7832 140.172 36.7832C139.738 36.7832 139.438 36.9277 139.27 37.2168C139.184 37.3652 139.141 37.5273 139.141 37.7031C139.141 37.9414 139.205 38.1699 139.334 38.3887C139.467 38.6074 139.686 38.8906 139.99 39.2383ZM139.721 43.7734C140.154 43.7734 140.527 43.6738 140.84 43.4746C141.152 43.2754 141.393 43.0527 141.561 42.8066L139.615 40.4336C139.064 40.8008 138.705 41.082 138.537 41.2773C138.279 41.5703 138.15 41.9277 138.15 42.3496C138.15 42.8066 138.316 43.1582 138.648 43.4043C138.984 43.6504 139.342 43.7734 139.721 43.7734ZM139.029 39.7129C138.666 39.2949 138.422 38.9434 138.297 38.6582C138.176 38.373 138.115 38.0977 138.115 37.832C138.115 37.2773 138.303 36.8184 138.678 36.4551C139.053 36.0879 139.555 35.9043 140.184 35.9043C140.781 35.9043 141.248 36.0742 141.584 36.4141C141.92 36.7539 142.088 37.1602 142.088 37.6328C142.088 38.1836 141.914 38.666 141.566 39.0801C141.363 39.3223 141.023 39.6016 140.547 39.918L142.117 41.793C142.223 41.4805 142.295 41.248 142.334 41.0957C142.377 40.9395 142.42 40.7227 142.463 40.4453H143.465C143.398 40.9961 143.266 41.5254 143.066 42.0332C142.867 42.5371 142.768 42.7402 142.768 42.6426L144.297 44.5H142.938L142.129 43.5156C141.809 43.8633 141.516 44.1172 141.25 44.2773C140.785 44.5586 140.25 44.6992 139.645 44.6992C138.75 44.6992 138.1 44.459 137.693 43.9785C137.287 43.4941 137.084 42.9492 137.084 42.3438C137.084 41.6914 137.281 41.1465 137.676 40.709C137.918 40.4434 138.369 40.1113 139.029 39.7129ZM152.447 35.6582C153.537 35.6582 154.383 35.9453 154.984 36.5195C155.586 37.0938 155.92 37.7461 155.986 38.4766H154.85C154.721 37.9219 154.463 37.4824 154.076 37.1582C153.693 36.834 153.154 36.6719 152.459 36.6719C151.611 36.6719 150.926 36.9707 150.402 37.5684C149.883 38.1621 149.623 39.0742 149.623 40.3047C149.623 41.3125 149.857 42.1309 150.326 42.7598C150.799 43.3848 151.502 43.6973 152.436 43.6973C153.295 43.6973 153.949 43.3672 154.398 42.707C154.637 42.3594 154.814 41.9023 154.932 41.3359H156.068C155.967 42.2422 155.631 43.002 155.061 43.6152C154.377 44.3535 153.455 44.7227 152.295 44.7227C151.295 44.7227 150.455 44.4199 149.775 43.8145C148.881 43.0137 148.434 41.7773 148.434 40.1055C148.434 38.8359 148.77 37.7949 149.441 36.9824C150.168 36.0996 151.17 35.6582 152.447 35.6582ZM158.16 42.8301C158.16 43.1348 158.271 43.375 158.494 43.5508C158.717 43.7266 158.98 43.8145 159.285 43.8145C159.656 43.8145 160.016 43.7285 160.363 43.5566C160.949 43.2715 161.242 42.8047 161.242 42.1562V41.3066C161.113 41.3887 160.947 41.457 160.744 41.5117C160.541 41.5664 160.342 41.6055 160.146 41.6289L159.508 41.7109C159.125 41.7617 158.838 41.8418 158.646 41.9512C158.322 42.1348 158.16 42.4277 158.16 42.8301ZM160.715 40.6973C160.957 40.666 161.119 40.5645 161.201 40.3926C161.248 40.2988 161.271 40.1641 161.271 39.9883C161.271 39.6289 161.143 39.3691 160.885 39.209C160.631 39.0449 160.266 38.9629 159.789 38.9629C159.238 38.9629 158.848 39.1113 158.617 39.4082C158.488 39.5723 158.404 39.8164 158.365 40.1406H157.381C157.4 39.3672 157.65 38.8301 158.131 38.5293C158.615 38.2246 159.176 38.0723 159.812 38.0723C160.551 38.0723 161.15 38.2129 161.611 38.4941C162.068 38.7754 162.297 39.2129 162.297 39.8066V43.4219C162.297 43.5312 162.318 43.6191 162.361 43.6855C162.408 43.752 162.504 43.7852 162.648 43.7852C162.695 43.7852 162.748 43.7832 162.807 43.7793C162.865 43.7715 162.928 43.7617 162.994 43.75V44.5293C162.83 44.5762 162.705 44.6055 162.619 44.6172C162.533 44.6289 162.416 44.6348 162.268 44.6348C161.904 44.6348 161.641 44.5059 161.477 44.248C161.391 44.1113 161.33 43.918 161.295 43.668C161.08 43.9492 160.771 44.1934 160.369 44.4004C159.967 44.6074 159.523 44.7109 159.039 44.7109C158.457 44.7109 157.98 44.5352 157.609 44.1836C157.242 43.8281 157.059 43.3848 157.059 42.8535C157.059 42.2715 157.24 41.8203 157.604 41.5C157.967 41.1797 158.443 40.9824 159.033 40.9082L160.715 40.6973ZM164.295 37.2695C164.311 36.832 164.387 36.5117 164.523 36.3086C164.77 35.9492 165.244 35.7695 165.947 35.7695C166.014 35.7695 166.082 35.7715 166.152 35.7754C166.223 35.7793 166.303 35.7852 166.393 35.793V36.7539C166.283 36.7461 166.203 36.7422 166.152 36.7422C166.105 36.7383 166.061 36.7363 166.018 36.7363C165.697 36.7363 165.506 36.8203 165.443 36.9883C165.381 37.1523 165.35 37.5742 165.35 38.2539H166.393V39.0859H165.338V44.5H164.295V39.0859H163.422V38.2539H164.295V37.2695ZM169.984 38.084C170.43 38.084 170.861 38.1895 171.279 38.4004C171.697 38.6074 172.016 38.877 172.234 39.209C172.445 39.5254 172.586 39.8945 172.656 40.3164C172.719 40.6055 172.75 41.0664 172.75 41.6992H168.15C168.17 42.3359 168.32 42.8477 168.602 43.2344C168.883 43.6172 169.318 43.8086 169.908 43.8086C170.459 43.8086 170.898 43.627 171.227 43.2637C171.414 43.0527 171.547 42.8086 171.625 42.5312H172.662C172.635 42.7617 172.543 43.0195 172.387 43.3047C172.234 43.5859 172.062 43.8164 171.871 43.9961C171.551 44.3086 171.154 44.5195 170.682 44.6289C170.428 44.6914 170.141 44.7227 169.82 44.7227C169.039 44.7227 168.377 44.4395 167.834 43.873C167.291 43.3027 167.02 42.5059 167.02 41.4824C167.02 40.4746 167.293 39.6562 167.84 39.0273C168.387 38.3984 169.102 38.084 169.984 38.084ZM171.666 40.8613C171.623 40.4043 171.523 40.0391 171.367 39.7656C171.078 39.2578 170.596 39.0039 169.92 39.0039C169.436 39.0039 169.029 39.1797 168.701 39.5312C168.373 39.8789 168.199 40.3223 168.18 40.8613H171.666ZM171.203 35.6992L169.639 37.3926H168.83L169.902 35.6992H171.203Z" fill="#FCD34D"/>
<path d="M22.667 18.6666H24.0003C25.4148 18.6666 26.7714 19.2285 27.7716 20.2287C28.7718 21.2289 29.3337 22.5855 29.3337 24C29.3337 25.4144 28.7718 26.771 27.7716 27.7712C26.7714 28.7714 25.4148 29.3333 24.0003 29.3333H22.667" stroke="#FBE889" stroke-width="2.66667" stroke-linecap="round" stroke-linejoin="round"/>
<path d="M4 18.6666H22.6667V30.6666C22.6667 32.0811 22.1048 33.4377 21.1046 34.4379C20.1044 35.4381 18.7478 36 17.3333 36H9.33333C7.91885 36 6.56229 35.4381 5.5621 34.4379C4.5619 33.4377 4 32.0811 4 30.6666V18.6666Z" stroke="#FBE889" stroke-width="2.66667" stroke-linecap="round" stroke-linejoin="round"/>
<path d="M8 10.6666V13.3333" stroke="#FBE889" stroke-width="2.66667" stroke-linecap="round" stroke-linejoin="round"/>
<path d="M13.333 10.6666V13.3333" stroke="#FBE889" stroke-width="2.66667" stroke-linecap="round" stroke-linejoin="round"/>
<path d="M18.667 10.6666V13.3333" stroke="#FBE889" stroke-width="2.66667" stroke-linecap="round" stroke-linejoin="round"/>
</svg>
